<svg width="50" height="50" viewBox="0 0 50 50" fill="none" xmlns="http://www.w3.org/2000/svg">
<path d="M29.2917 18.7917L31.2083 20.7083L12.3333 39.5833H10.4167V37.6667L29.2917 18.7917ZM36.7917 6.25C36.2708 6.25 35.7292 6.45833 35.3333 6.85417L31.5208 10.6667L39.3333 18.4792L43.1458 14.6667C43.339 14.4739 43.4922 14.245 43.5967 13.993C43.7013 13.7409 43.7551 13.4708 43.7551 13.1979C43.7551 12.9251 43.7013 12.6549 43.5967 12.4029C43.4922 12.1508 43.339 11.9219 43.1458 11.7292L38.2708 6.85417C37.8542 6.4375 37.3333 6.25 36.7917 6.25ZM29.2917 12.8958L6.25 35.9375V43.75H14.0625L37.1042 20.7083L29.2917 12.8958Z" fill="black"/>
</svg>
