<svg width="50" height="50" viewBox="0 0 50 50" fill="none" xmlns="http://www.w3.org/2000/svg">
<path d="M49.9046 17.8756L46.329 2.27735C46.1835 1.62249 45.87 1.04518 45.4364 0.633857C45.0029 0.222534 44.4732 -0.000120778 43.9285 4.91506e-08H6.07147C4.94626 4.91506e-08 3.97108 0.935897 3.67102 2.27735L0.0953578 17.8756C-0.354726 19.841 0.845498 21.8376 2.49581 21.8376H7.99683L5.37134 46.4205C5.31836 46.8279 5.33142 47.2443 5.40976 47.6453C5.48809 48.0463 5.6301 48.4235 5.82739 48.7548C6.02467 49.0861 6.27322 49.3646 6.55832 49.5739C6.84341 49.7831 7.15927 49.9189 7.48718 49.9732C7.81509 50.0275 8.1484 49.9991 8.46737 49.8898C8.78634 49.7805 9.08449 49.5925 9.34418 49.3368C9.60386 49.0812 9.8198 48.7632 9.97922 48.4016C10.1386 48.0399 10.2383 47.6421 10.2723 47.2316L11.6725 34.3162H38.3525L39.7277 47.2316C39.8115 47.9705 40.1047 48.6476 40.5543 49.1398C41.0039 49.6321 41.5801 49.9069 42.1782 49.9145C43.6785 49.9145 44.8287 48.2611 44.6287 46.4205L42.0032 21.8376H47.5042C49.1545 21.8376 50.3547 19.841 49.9046 17.8756ZM12.3226 28.0769L12.9978 21.8376H37.0022L37.6774 28.0769H12.3226Z" fill="black"/>
</svg>
